<svg height="512" viewBox="0 0 60 60" width="512" fill="#fff" xmlns="http://www.w3.org/2000/svg"><g id="003---Astronaut-With-Flag"><path id="Shape" d="m13 24h5.07c2.5585733-.0040569 4.9944879-1.0969101 6.6986919-3.0053132 1.7042039-1.9084031 2.5155976-4.4519534 2.2313081-6.9946868l-.64-5.54c-.2910307-2.53673694-2.4466774-4.44663988-5-4.43h-11.69c-2.5533226-.01663988-4.70896926 1.89326306-5 4.43l-.61 5.54c-.28447995 2.5444634.52821885 5.0896557 2.23464378 6.9984085 1.70642494 1.9087527 4.14503952 3.0003763 6.70535622 3.0015915zm-6.95-9.8.64-5.54c.17283848-1.51521995 1.45495426-2.65965886 2.98-2.66h11.74c1.5326758-.00987158 2.8263249 1.13716395 3 2.66l.59 5.54c.2276274 1.9785853-.3983397 3.9604558-1.7211551 5.4493391-1.3228155 1.4888832-3.2172207 2.3437953-5.2088449 2.3506609h-5.07c-1.9951132-.0011786-3.89492267-.853632-5.22218103-2.3432169s-1.95583229-3.4747417-1.72781897-5.4567831z"/><path id="Shape" d="m10.58 9c.5522847 0 1-.44771525 1-1s-.4477153-1-1-1-1 .44771525-1 1 .4477153 1 1 1z"/><path id="Shape" d="m14.56 9h6c.5522847 0 1-.44771525 1-1s-.4477153-1-1-1h-6c-.5522847 0-1 .44771525-1 1s.4477153 1 1 1z"/><path id="Shape" d="m59 58h-3c-.5522847 0-1 .4477153-1 1s.4477153 1 1 1h3c.5522847 0 1-.4477153 1-1s-.4477153-1-1-1z"/><path id="Shape" d="m0 59c0 .5522847.44771525 1 1 1h51c.5522847 0 1-.4477153 1-1s-.4477153-1-1-1h-17.18c.26-.75.18 1.85.18-32.41.73-4.26 6.17-6.45 13.89-5.6 2.2333248.3145615 4.4956755-.328193 6.23-1.77 4.24-3.52 4.88-10.83 4.88-11.14.0100435-.3148263-.1288334-.61598392-.3747965-.8127544-.2459631-.19677049-.5702606-.26615238-.8752035-.1872456-12.57 3.28-18.57 2-21.38.34-1.063769-.55162421-1.9018848-1.4569307-2.37-2.56v-.86c0-1.65685425-1.3431458-3-3-3s-3 1.34314575-3 3v1.18c-1.6505425-2.60268639-4.5180741-4.17982878-7.6-4.18h-11.74c-4.57813968.00726052-8.42132293 3.45020184-8.93 8l-.64 5.5c-.64975924 5.6176844 2.40671947 11.0109948 7.56 13.34-.43.67-.21.2-2.44 6.9-.44783895 1.3480538-.14714462 2.8324941.79 3.9 0 6.08 0 6.74-.09 7.93-.17 1.57-.18 4.42 1.6 5.77.26529495.2320786.43905079.551222.49.9 0 4.6-.11 4.82.33 5.76h-7.33c-.55228475 0-1 .4477153-1 1zm20.67-1c.2857021-.657338.3992719-1.3766135.33-2.09.0043615-1.5820148-1.0738515-2.961797-2.61-3.34-.728767-.1867647-1.1963025-.8967261-1.08-1.64l.58-4.93h4c-.62 5.24-.59 4.94-.59 5.16-.0006108 1.5861818 1.0804052 2.9683969 2.62 3.35.6457998.1569171 1.1003297.7354097 1.1 1.4v.64c.0000369.3880543-.1554729.7599311-.4317417 1.0324412-.2762688.27251-.6502409.4229113-1.0382583.4175588zm-5.8-30c3.21 0 4.25.1 6.13-.34v3.34h-6.45c.4386252-.9362241.5512754-1.9923199.32-3zm8.13-1c2.4652151-1.0122795 4.5597683-2.7577404 6-5v9.54c-1.27-.74-2-.56-6-.56zm6.18 31h-2.51c.2857021-.657338.3992719-1.3766135.33-2.09.00075-1.5807743-1.0759283-2.9585924-2.61-3.34-.7357432-.1783039-1.2104957-.8926105-1.09-1.64l.7-5.57c1.2273877-1.8779774 1.622001-4.1804921 1.09-6.36 1.91 0 2.73.13 3.91-.55 0 20.29-.08 18.81.18 19.55zm28.63-49.67c-.9 5.21-3.4 10.26-8.7 9.68-6.39-.71-11.44.58-14.11 3.37v-14.27c5.25 4.56 16.06 2.89 22.81 1.22zm-25.81-6.33c.5522847 0 1 .44771525 1 1v54c0 .5522847-.4477153 1-1 1s-1-.4477153-1-1v-54c0-.55228475.4477153-1 1-1zm-29.93 11.73.64-5.54c.4109587-3.52764069 3.39850262-6.18848917 6.95-6.19h11.74c3.5705637-.02397628 6.586906 2.64333209 7 6.19.77 6.69.64 5.1.64 8-.4680428 4.2177238-3.3204687 7.7900661-7.33 9.18-2.16.75-3.43.6-8 .6-1.1822787-1.034072-2.8603366-1.2805001-4.29-.63-4.86312506-1.6755541-7.91579773-6.4975309-7.35-11.61zm5 20.64 2-6c.17542234-.4987642.53252598-.9130045 1-1.16.7239016-.3666939 1.5976208-.2596329 2.2115694.2709941s.8464184 1.3796294.5884306 2.1490059l-.69 2.06c-.1010633.3094725-.0451528.6487702.1498626.909454.1950153.2606837.5047217.4101188.8301374.400546h13.84c1.1045695 0 2 .8954305 2 2s-.8954305 2-2 2h-18c-.64275086.0005839-1.24661579-.3077803-1.62301283-.828793-.37639703-.5210128-.47945404-1.1911774-.27698717-1.801207zm2.93 22.18v-4.31c-.04927802-.975306-.51554262-1.8823364-1.28-2.49-.72-.55-1-2-.82-4 .15207136-2.2900697.18544939-4.586478.1-6.88.72.19-.24.13 15 .13.585449 1.6580588.4021844 3.4907045-.5 5h-5.5c-.5086257-.0036739-.9389766.3750349-1 .88l-.69 5.79c-.2527438 1.7523968.8620677 3.4116512 2.58 3.84.6457998.1569171 1.1003297.7354097 1.1 1.4v.64c.000019.7969238-.6430951 1.444504-1.44 1.45h-6.1c-.8008129 0-1.45-.6491871-1.45-1.45z"/><path id="Shape" d="m43 32c.5522847 0 1-.4477153 1-1v-1h1c.5522847 0 1-.4477153 1-1s-.4477153-1-1-1h-1v-1c0-.5522847-.4477153-1-1-1s-1 .4477153-1 1v1h-1c-.5522847 0-1 .4477153-1 1s.4477153 1 1 1h1v1c0 .5522847.4477153 1 1 1z"/><path id="Shape" d="m52 4h1v1c0 .55228475.4477153 1 1 1s1-.44771525 1-1v-1h1c.5522847 0 1-.44771525 1-1s-.4477153-1-1-1h-1v-1c0-.55228475-.4477153-1-1-1s-1 .44771525-1 1v1h-1c-.5522847 0-1 .44771525-1 1s.4477153 1 1 1z"/><path id="Shape" d="m55 42c.5522847 0 1-.4477153 1-1v-1h1c.5522847 0 1-.4477153 1-1s-.4477153-1-1-1h-1v-1c0-.5522847-.4477153-1-1-1s-1 .4477153-1 1v1h-1c-.5522847 0-1 .4477153-1 1s.4477153 1 1 1h1v1c0 .5522847.4477153 1 1 1z"/></g></svg>